<?xml version="1.0" standalone="no"?>
<!DOCTYPE svg PUBLIC "-//W3C//DTD SVG 20010904//EN"
 "http://www.w3.org/TR/2001/REC-SVG-20010904/DTD/svg10.dtd">
<svg version="1.0" xmlns="http://www.w3.org/2000/svg"
 width="700.000000pt" height="700.000000pt" viewBox="0 0 700.000000 700.000000"
 preserveAspectRatio="xMidYMid meet">
<metadata>
Created by potrace 1.11, written by Peter Selinger 2001-2013
</metadata>
<g transform="translate(0.000000,700.000000) scale(0.100000,-0.100000)"
fill="#000000" stroke="none">
<path d="M1175 6993 c-195 -25 -420 -104 -569 -201 -193 -126 -372 -326 -467
-523 -34 -69 -81 -198 -99 -268 -39 -151 -39 -124 -39 -2506 0 -2259 1 -2302
20 -2405 104 -544 484 -937 1027 -1062 l97 -22 2315 -3 c2432 -2 2391 -3 2556
41 160 42 331 124 464 224 73 55 199 182 257 259 48 65 161 264 167 296 2 6 6
21 10 32 5 11 14 37 22 57 7 20 23 81 36 135 l22 98 3 2315 c1 1380 -2 2340
-7 2378 -30 199 -65 309 -151 471 -125 234 -314 419 -552 540 -101 51 -186 87
-227 96 -8 1 -33 8 -55 14 -22 6 -56 13 -75 16 -19 3 -60 10 -90 15 -52 8
-4598 12 -4665 3z m3786 -1220 c4 -36 3 -617 -1 -622 -3 -4 -491 -7 -1085 -7
l-1080 0 -3 -680 -2 -679 947 -1 948 0 3 -322 2 -322 -950 0 -950 0 0 -960 0
-960 -375 0 -375 0 -1 23 c-1 29 -1 4508 0 4525 1 9 300 12 1461 12 803 0
1460 -3 1461 -7z"/>
</g>
</svg>
